<?xml version="1.0" encoding="utf-8"?>
<!-- Generator: Adobe Illustrator 29.8.1, SVG Export Plug-In . SVG Version: 9.03 Build 0)  -->
<svg version="1.0" id="Layer_1" xmlns="http://www.w3.org/2000/svg" xmlns:xlink="http://www.w3.org/1999/xlink" x="0px" y="0px"
	 viewBox="0 0 1024 1024" style="enable-background:new 0 0 1024 1024;" xml:space="preserve">
<g transform="translate(0.000000,1024.000000) scale(0.100000,-0.100000)">
	<path d="M4814.38,8471.47c-1019.93-102.07-1960.19-782.03-2375.15-1721.4c-170.89-396.29-244.46-849.07-239.62-1281.53
		c-1.56-109.48,35.86-267.76,171.13-256.09c110.04,11.39,158.99,128.88,165.3,226.65c12.97,258.51,25.08,515.62,102.46,772.95
		c128.94,441.81,343.44,864.03,678.55,1185.39c918.47,926.58,2537.21,974.13,3507.1,99.63c302.43-266.68,542.86-605.08,691.97-979.8
		c265.15-683.24,251.15-1536.2-52.67-2196.58c-39.36-93.7-112.05-197.44-74.7-301.3c21.07-60.61,79.9-106.16,144.2-109.41
		c63.11-6.35,119.12,36.92,156.36,87.15c496.93,774.71,466.18,1919.47,119.96,2731.65
		c-490.21,1164.42-1742.57,1876.9-2992.92,1742.89L4814.38,8471.47z"/>
	<path d="M4934.31,7772.13c-1022.15-79.31-1910.9-876.99-2029.92-1906.71c-14.56-122.15-18.57-245.32-35.24-367
		c-26.7-206.59-105.35-413.32-253.11-563.84c-100.41-107.13-243.36-170-328.97-290.9c-92.15-131.36-4.06-276.58,156.55-262.67
		c98.88,9.01,183.22,71.78,256.78,134.37c204.03,177.96,357.61,412.06,444.83,668.21c136.83,400.93,87.07,851.45,301.43,1228.01
		c495.96,911.92,1741.52,1269.8,2641.69,738.56c575.78-333.99,921-989.68,913.8-1650.29c0.38-254.31-58.5-512.76-157.11-751.79
		c-28.7-76.18-55.94-161.85-37.27-241.7c17.98-95.05,113.11-157.34,205.64-116.92c96.86,39.91,145.32,149.55,178.63,243.74
		c45.7,130.7,83.51,264.46,112.29,399.83c327,1466.5-852.25,2883.44-2368.05,2739.27L4934.31,7772.13z"/>
	<path d="M4866.38,7052.19c-638.86-116.31-1205.87-646.27-1273.27-1311.89c-45.7-410.25-115.63-845.72-379.3-1162.05
		c-172.64-210.69-413.33-408.19-652.94-545.13c-54.18-36.13-103.15-73.84-120.65-134.3c-27.82-95.68,45.6-200.1,148.41-203.75
		c126.07-12.16,351.25,160.12,460.04,237.98c411.34,294.38,664.99,730.61,793.05,1213.71c63.36,239.03,70.36,493.37,147.8,726.69
		c79.32,239,229.13,455.09,429.06,608.84c83.99,64.59,176.58,117.98,275.04,157.24c269.54,110.14,583.43,108.91,854.46,6.23
		c588.6-211.84,866.86-853.16,717.93-1444.91c-22.88-108.03-80.13-247.06,8.92-338.85c91.77-85.47,218.98-32.72,271.59,73.15
		c266.94,569.33,49.07,1291.65-377.47,1732.04c-334.57,350.66-836.46,478.67-1300.73,385.36L4866.38,7052.19z"/>
	<path d="M4797.98,4774.38c-382.34-80.66-741.78-280.61-1006.71-568.09c-292.69-311.85-605.23-623.06-986.67-824.25
		c-43.16-26.92-83.77-56.17-107.53-94.13c-52.92-80.42-17.64-203.84,72.66-240.69c51.82-21.01,106.19-8.36,164.85,14.53
		c240.42,102.89,437.87,273.72,644.8,431.81c351.57,267.96,702.91,573.35,1145.4,671.41c709.75,172.96,1426.22-98.72,1973.5-557.22
		c66.14-50.18,145.52-110.16,207.77-155.08c113.84-83.31,213.51-144.04,330.98-206.34c73.48-37.37,160.1-87.08,240.2-65.05
		c85.53,20.17,139.77,117.58,118.23,200.2c-24.72,116.44-222.66,184.75-318.17,247.74c-564.69,321.59-945.73,941.96-1595.49,1115.97
		c-284.66,81.45-593.17,90.71-881.89,29.61L4797.98,4774.38z"/>
	<path d="M4995.97,3836.48c-751.35-79.09-1095.44-564.64-1680.51-938.31c-86.77-58.25-214.96-103.93-246.71-211.25
		c-33.61-130.66,82.71-250.18,211.09-203.21c96.99,28.61,231.32,114.07,321.59,173.66c382.15,249.12,693.55,615.81,1130.82,773.74
		c463.11,170.52,991.55,35.29,1380.28-249.97c58.8-41,116.33-83.83,173.44-127.28c191.8-139.83,582.38-480.8,811.46-477.19
		c83.38-1.11,174.37,60.62,171.89,148.9c-1,73.5-51.23,130.56-108.62,174.95c-439.37,270.49-832.81,622.2-1310.74,825.02
		c-268.1,109.23-565.31,143.99-852.01,111.17L4995.97,3836.48z"/>
	<path d="M4993.85,3123.16c-443.73-87.75-781.48-454.51-1153.07-700.7c-60.48-40.97-126.64-79.43-182.79-126.52
		c-44.06-37.41-74.02-75.7-76.06-128.99c-4-127.31,117.47-214.93,241.42-171.45c108.97,36.31,201.49,115.36,292.16,181.11
		c304.38,222.45,571.81,530.95,956.28,610.75c248.3,58.16,467.33-61.17,659.56-207.01c235.17-179.68,472.46-367.67,741.41-493.97
		c66.36-31.43,143.05-50.36,209.08-9.31c119.19,73.15,92.45,229.49-16.14,303.16c-51.55,38.45-111.91,67.95-167,100.38
		c-462.72,277.3-919.17,749.75-1502.96,642.91L4993.85,3123.16z"/>
	<path d="M5057.33,2432.04c-182.72-55.02-318.66-200.43-467.13-310.97c-64.33-50.14-138.82-90.92-195.17-150.31
		c-73.8-74.61-69.63-188.56,15.66-251.34c68.53-52.92,139.72-45.18,214.99,2.64c70.63,41.32,138.81,93.15,203.34,143.36
		c96.57,73.26,208.26,181.74,315.33,213.72c73.32,15.04,141.1-50.13,210.31-93.59c113.11-79.73,225.28-166.19,347.19-232.45
		c48.65-25.77,98.7-50.46,145.12-50.85c67.95-1.5,136.87,44.49,157.04,110.52c46.58,177.14-208.74,280.61-322.22,371.11
		c-190.49,140.07-363.7,327.18-622.56,248.73L5057.33,2432.04z"/>
</g>
<circle cx="513.58" cy="456.23" r="64.36"/>
</svg>
